<svg xmlns="http://www.w3.org/2000/svg" viewBox="0 0 2195.8 247"><defs><style>.a{fill:#111111;}</style></defs><path class="a" d="M214.92,269.08c69.51,0,152.38-27.94,152.38-123,0-105.17-75-123-153.27-123H29.58v246Zm-6-67H118.58v-112H208.9c48.24,0,65.2,25.08,65.2,56S252.63,202.08,208.9,202.08Z" transform="translate(-29.58 -22.08)"/><path class="a" d="M383.58,22.08v247h298v-69h-209v-22h195v-65h-195v-22h209v-69Z" transform="translate(-29.58 -22.08)"/><path class="a" d="M708.58,22.08v247h298v-69h-208v-22h195v-65h-195v-22h208v-69Z" transform="translate(-29.58 -22.08)"/><path class="a" d="M1031.58,22.08v247h89v-50h102.53c27.73,0,112.68-10.72,112.68-102.21S1245.43,22.08,1220,22.08Zm187.11,124h-98.11v-52h96.57c12.69,0,37.37.87,37.37,25S1232.55,146.08,1218.69,146.08Z" transform="translate(-29.58 -22.08)"/><path class="a" d="M1524.18,22.82c-118.8,0-165.18,7.44-165.18,80.35,0,63.39,55.74,68.32,165.17,76.55,70.56,5.3,78.52,3.8,78.52,11.7,0,11.28-7.18,10.68-71.86,10.68-68.82,0-75.56-3.34-75.56-18h-92.52c0,71.79,21.79,84.65,164,84.65,154.47,0,180.43-13.27,180.43-76.45,0-63.39-32-65.28-181.58-76.45-67.72-5-72.54-5.37-73.18-11.86,0-9.1,5.69-12.1,74-12.1,70.58,0,76.06,7.25,76.06,20.21h95.28C1697.8,40.8,1665.16,22.82,1524.18,22.82Z" transform="translate(-29.58 -22.08)"/><path class="a" d="M1727.58,269.08h89v-247h-89Z" transform="translate(-29.58 -22.08)"/><path class="a" d="M2225.38,22.08h-120.7l-70.85,70.15-70.21-70.15H1842.91l121.5,123.5-122.63,123.5h120.7l70.86-70.15,70.22,70.15h120.7l-121.51-123.5Z" transform="translate(-29.58 -22.08)"/></svg>