<?xml version="1.0" standalone="no"?>
<!DOCTYPE svg PUBLIC "-//W3C//DTD SVG 20010904//EN"
 "http://www.w3.org/TR/2001/REC-SVG-20010904/DTD/svg10.dtd">
<svg version="1.0" xmlns="http://www.w3.org/2000/svg"
 width="976.000000pt" height="976.000000pt" viewBox="0 0 976.000000 976.000000"
 preserveAspectRatio="xMidYMid meet">
<metadata>
Created by potrace 1.11, written by Peter Selinger 2001-2013
</metadata>
<g transform="translate(0.000000,976.000000) scale(0.100000,-0.100000)"
fill="#000000" stroke="none">
<path d="M0 4875 l0 -4025 3193 3 3192 3 150 22 c878 128 1575 461 2131 1016
538 538 875 1217 1024 2061 57 323 64 431 64 920 0 480 -7 590 -59 895 -216
1253 -864 2183 -1890 2711 -384 198 -761 314 -1270 392 l-140 21 -3197 3
-3198 3 0 -4025z m5560 1469 c74 -8 177 -24 229 -36 653 -140 971 -610 971
-1433 0 -801 -300 -1265 -918 -1420 -239 -60 -193 -58 -1579 -62 l-1273 -4 0
1486 0 1485 1218 0 c1038 0 1237 -2 1352 -16z"/>
</g>
</svg>
