<?xml version="1.0" standalone="no"?>
<!DOCTYPE svg PUBLIC "-//W3C//DTD SVG 20010904//EN"
 "http://www.w3.org/TR/2001/REC-SVG-20010904/DTD/svg10.dtd">
<svg version="1.0" xmlns="http://www.w3.org/2000/svg"
 width="700.000000pt" height="700.000000pt" viewBox="0 0 700.000000 700.000000"
 preserveAspectRatio="xMidYMid meet">
<metadata>
Created by potrace 1.11, written by Peter Selinger 2001-2013
</metadata>
<g transform="translate(0.000000,700.000000) scale(0.100000,-0.100000)"
fill="#000000" stroke="none">
<path d="M885 5769 c-2 -3 38 -79 90 -169 52 -89 95 -165 95 -167 0 -4 45 -79
78 -129 6 -10 15 -26 19 -34 4 -8 16 -31 28 -50 12 -19 33 -55 47 -80 14 -25
109 -191 213 -370 103 -179 197 -341 207 -360 11 -19 42 -72 69 -118 27 -45
49 -85 49 -89 0 -4 6 -14 14 -22 8 -9 26 -38 41 -66 14 -27 36 -66 47 -85 11
-19 71 -123 133 -230 62 -107 122 -211 134 -230 11 -19 24 -42 28 -50 4 -8 44
-78 89 -155 70 -121 433 -749 486 -843 38 -67 56 -99 102 -177 25 -44 50 -87
56 -95 5 -8 31 -53 57 -99 78 -138 87 -153 130 -226 64 -109 263 -455 291
-505 14 -25 32 -56 41 -70 10 -14 28 -46 41 -72 13 -26 28 -44 32 -42 4 3 28
42 54 87 25 45 56 98 67 117 11 19 33 58 49 85 16 28 33 57 38 65 17 26 412
713 443 770 16 30 36 62 43 71 8 8 14 18 14 22 0 3 14 30 32 59 17 29 48 82
68 118 20 36 111 194 203 353 92 158 167 289 167 292 0 2 12 21 26 42 14 21
30 47 35 58 6 11 15 29 22 40 13 21 61 105 95 165 11 19 102 177 202 350 100
173 191 331 202 350 11 19 27 49 37 65 10 17 87 149 171 295 84 146 187 323
228 394 41 72 82 144 92 160 9 17 77 135 150 261 183 316 183 315 173 316 -33
5 -5226 3 -5228 -2z"/>
</g>
</svg>
